<svg width="22" height="22" viewBox="0 0 22 22" fill="none" xmlns="http://www.w3.org/2000/svg">
<path d="M11 14.1281C10.8833 14.1281 10.774 14.11 10.6719 14.0739C10.5698 14.0377 10.475 13.9756 10.3875 13.8875L7.2375 10.7375C7.0625 10.5625 6.9785 10.3583 6.9855 10.125C6.9925 9.89167 7.0765 9.6875 7.2375 9.5125C7.4125 9.3375 7.62046 9.2465 7.86137 9.2395C8.10229 9.2325 8.30995 9.31621 8.48437 9.49063L10.125 11.1313V4.875C10.125 4.62709 10.209 4.41942 10.377 4.252C10.545 4.08459 10.7527 4.00059 11 4C11.2473 3.99942 11.4553 4.08342 11.6239 4.252C11.7925 4.42059 11.8762 4.62825 11.875 4.875V11.1313L13.5156 9.49063C13.6906 9.31563 13.8986 9.23163 14.1395 9.23863C14.3804 9.24563 14.5881 9.33692 14.7625 9.5125C14.9229 9.6875 15.0069 9.89167 15.0145 10.125C15.0221 10.3583 14.9381 10.5625 14.7625 10.7375L11.6125 13.8875C11.525 13.975 11.4302 14.0371 11.3281 14.0739C11.226 14.1106 11.1167 14.1287 11 14.1281ZM5.75 18C5.26875 18 4.85692 17.8288 4.5145 17.4864C4.17208 17.144 4.00058 16.7318 4 16.25V14.5C4 14.2521 4.084 14.0444 4.252 13.877C4.42 13.7096 4.62767 13.6256 4.875 13.625C5.12233 13.6244 5.33029 13.7084 5.49887 13.877C5.66746 14.0456 5.75117 14.2532 5.75 14.5V16.25H16.25V14.5C16.25 14.2521 16.334 14.0444 16.502 13.877C16.67 13.7096 16.8777 13.6256 17.125 13.625C17.3723 13.6244 17.5803 13.7084 17.7489 13.877C17.9174 14.0456 18.0012 14.2532 18 14.5V16.25C18 16.7312 17.8288 17.1434 17.4864 17.4864C17.1439 17.8294 16.7318 18.0006 16.25 18H5.75Z" fill="black"/>
</svg>
